<mxfile host="app.diagrams.net" agent="Mozilla/5.0 (Windows NT 10.0; Win64; x64) AppleWebKit/537.36 (KHTML, like Gecko) Chrome/129.0.0.0 Safari/537.36" version="24.7.17">
  <diagram name="第 1 页" id="uNIfRUgTt6fKBW9UfFtN">
    <mxGraphModel dx="1562" dy="845" grid="1" gridSize="10" guides="1" tooltips="1" connect="1" arrows="1" fold="1" page="1" pageScale="1" pageWidth="827" pageHeight="1169" math="0" shadow="0">
      <root>
        <mxCell id="0" />
        <mxCell id="1" parent="0" />
        <mxCell id="P4-iIVbQAh0jM-V30Eyr-3" value="单位" style="rounded=1;whiteSpace=wrap;html=1;" parent="1" vertex="1">
          <mxGeometry x="110" y="780" width="100" height="60" as="geometry" />
        </mxCell>
        <mxCell id="P4-iIVbQAh0jM-V30Eyr-11" value="" style="edgeStyle=orthogonalEdgeStyle;rounded=0;orthogonalLoop=1;jettySize=auto;html=1;entryX=0;entryY=0.5;entryDx=0;entryDy=0;" parent="1" source="P4-iIVbQAh0jM-V30Eyr-4" target="P4-iIVbQAh0jM-V30Eyr-5" edge="1">
          <mxGeometry relative="1" as="geometry">
            <mxPoint x="500" y="760" as="targetPoint" />
          </mxGeometry>
        </mxCell>
        <mxCell id="P4-iIVbQAh0jM-V30Eyr-14" value="部门上报自身&lt;div&gt;所有下级都已上报&lt;br&gt;&lt;/div&gt;" style="edgeLabel;html=1;align=center;verticalAlign=middle;resizable=0;points=[];" parent="P4-iIVbQAh0jM-V30Eyr-11" vertex="1" connectable="0">
          <mxGeometry x="0.275" y="1" relative="1" as="geometry">
            <mxPoint x="-14" as="offset" />
          </mxGeometry>
        </mxCell>
        <mxCell id="P4-iIVbQAh0jM-V30Eyr-4" value="部门" style="rounded=1;whiteSpace=wrap;html=1;" parent="1" vertex="1">
          <mxGeometry x="350" y="780" width="100" height="60" as="geometry" />
        </mxCell>
        <mxCell id="P4-iIVbQAh0jM-V30Eyr-19" value="" style="edgeStyle=orthogonalEdgeStyle;rounded=0;orthogonalLoop=1;jettySize=auto;html=1;entryX=0;entryY=0.5;entryDx=0;entryDy=0;" parent="1" target="P4-iIVbQAh0jM-V30Eyr-6" edge="1">
          <mxGeometry relative="1" as="geometry">
            <mxPoint x="690" y="809.5" as="sourcePoint" />
            <mxPoint x="1080" y="809.5" as="targetPoint" />
          </mxGeometry>
        </mxCell>
        <mxCell id="P4-iIVbQAh0jM-V30Eyr-20" value="业务处上报自身&lt;div&gt;所有下级都已上报&lt;br&gt;&lt;/div&gt;" style="edgeLabel;html=1;align=center;verticalAlign=middle;resizable=0;points=[];" parent="P4-iIVbQAh0jM-V30Eyr-19" vertex="1" connectable="0">
          <mxGeometry x="0.1333" y="-2" relative="1" as="geometry">
            <mxPoint as="offset" />
          </mxGeometry>
        </mxCell>
        <mxCell id="P4-iIVbQAh0jM-V30Eyr-5" value="业务处" style="rounded=1;whiteSpace=wrap;html=1;" parent="1" vertex="1">
          <mxGeometry x="590" y="780" width="110" height="60" as="geometry" />
        </mxCell>
        <mxCell id="P4-iIVbQAh0jM-V30Eyr-6" value="国库" style="rounded=1;whiteSpace=wrap;html=1;" parent="1" vertex="1">
          <mxGeometry x="827" y="780" width="120" height="60" as="geometry" />
        </mxCell>
        <mxCell id="P4-iIVbQAh0jM-V30Eyr-9" value="" style="endArrow=classic;html=1;rounded=0;exitX=1;exitY=0.5;exitDx=0;exitDy=0;entryX=0;entryY=0.5;entryDx=0;entryDy=0;" parent="1" source="P4-iIVbQAh0jM-V30Eyr-3" target="P4-iIVbQAh0jM-V30Eyr-4" edge="1">
          <mxGeometry width="50" height="50" relative="1" as="geometry">
            <mxPoint x="554" y="620" as="sourcePoint" />
            <mxPoint x="604" y="570" as="targetPoint" />
            <Array as="points" />
          </mxGeometry>
        </mxCell>
        <mxCell id="P4-iIVbQAh0jM-V30Eyr-10" value="单位上报自身" style="edgeLabel;html=1;align=center;verticalAlign=middle;resizable=0;points=[];" parent="P4-iIVbQAh0jM-V30Eyr-9" vertex="1" connectable="0">
          <mxGeometry x="-0.08" y="1" relative="1" as="geometry">
            <mxPoint as="offset" />
          </mxGeometry>
        </mxCell>
        <mxCell id="wtDnvfojQxaX2E4ap2Hc-31" value="" style="endArrow=classic;html=1;rounded=0;exitX=0.572;exitY=1.017;exitDx=0;exitDy=0;exitPerimeter=0;entryX=0.392;entryY=1.017;entryDx=0;entryDy=0;entryPerimeter=0;" edge="1" parent="1" source="P4-iIVbQAh0jM-V30Eyr-6" target="P4-iIVbQAh0jM-V30Eyr-3">
          <mxGeometry width="50" height="50" relative="1" as="geometry">
            <mxPoint x="893.96" y="796.4200000000001" as="sourcePoint" />
            <mxPoint x="148" y="843" as="targetPoint" />
            <Array as="points">
              <mxPoint x="894" y="923" />
              <mxPoint x="150" y="923" />
            </Array>
          </mxGeometry>
        </mxCell>
        <mxCell id="wtDnvfojQxaX2E4ap2Hc-34" value="代替下级上报" style="edgeLabel;html=1;align=center;verticalAlign=middle;resizable=0;points=[];" vertex="1" connectable="0" parent="wtDnvfojQxaX2E4ap2Hc-31">
          <mxGeometry x="-0.8864" relative="1" as="geometry">
            <mxPoint as="offset" />
          </mxGeometry>
        </mxCell>
        <mxCell id="wtDnvfojQxaX2E4ap2Hc-36" value="代替下级上报" style="edgeLabel;html=1;align=center;verticalAlign=middle;resizable=0;points=[];" vertex="1" connectable="0" parent="wtDnvfojQxaX2E4ap2Hc-31">
          <mxGeometry x="-0.2005" y="-1" relative="1" as="geometry">
            <mxPoint x="-50" as="offset" />
          </mxGeometry>
        </mxCell>
        <mxCell id="wtDnvfojQxaX2E4ap2Hc-40" value="代替下级上报" style="edgeLabel;html=1;align=center;verticalAlign=middle;resizable=0;points=[];" vertex="1" connectable="0" parent="wtDnvfojQxaX2E4ap2Hc-31">
          <mxGeometry x="0.4113" y="-2" relative="1" as="geometry">
            <mxPoint as="offset" />
          </mxGeometry>
        </mxCell>
        <mxCell id="wtDnvfojQxaX2E4ap2Hc-32" value="" style="endArrow=classic;html=1;rounded=0;entryX=0.25;entryY=1;entryDx=0;entryDy=0;" edge="1" parent="1">
          <mxGeometry width="50" height="50" relative="1" as="geometry">
            <mxPoint x="430" y="920" as="sourcePoint" />
            <mxPoint x="430" y="840" as="targetPoint" />
          </mxGeometry>
        </mxCell>
        <mxCell id="wtDnvfojQxaX2E4ap2Hc-33" value="" style="endArrow=classic;html=1;rounded=0;entryX=0.182;entryY=0.977;entryDx=0;entryDy=0;entryPerimeter=0;" edge="1" parent="1">
          <mxGeometry width="50" height="50" relative="1" as="geometry">
            <mxPoint x="670" y="920" as="sourcePoint" />
            <mxPoint x="670.02" y="839.9999999999999" as="targetPoint" />
          </mxGeometry>
        </mxCell>
        <mxCell id="wtDnvfojQxaX2E4ap2Hc-35" value="" style="endArrow=none;html=1;rounded=0;" edge="1" parent="1">
          <mxGeometry width="50" height="50" relative="1" as="geometry">
            <mxPoint x="640" y="920" as="sourcePoint" />
            <mxPoint x="640" y="840" as="targetPoint" />
          </mxGeometry>
        </mxCell>
        <mxCell id="wtDnvfojQxaX2E4ap2Hc-37" value="" style="endArrow=none;html=1;rounded=0;" edge="1" parent="1">
          <mxGeometry width="50" height="50" relative="1" as="geometry">
            <mxPoint x="400" y="920" as="sourcePoint" />
            <mxPoint x="400" y="840" as="targetPoint" />
          </mxGeometry>
        </mxCell>
      </root>
    </mxGraphModel>
  </diagram>
</mxfile>
